<svg width="130" height="40" viewBox="0 0 130 40" fill="none" xmlns="http://www.w3.org/2000/svg">
<path d="M129.278 35.387C129.278 37.5187 127.623 39.2453 125.576 39.2453H4.42898C2.38298 39.2453 0.722229 37.5187 0.722229 35.387V4.61812C0.722229 2.48748 2.38298 0.754761 4.42898 0.754761H125.575C127.623 0.754761 129.277 2.48748 129.277 4.61812L129.278 35.387Z" fill="black"/>
<path d="M125.185 0.801247C127.414 0.801247 129.228 2.685 129.228 5V35C129.228 37.315 127.414 39.1988 125.185 39.1988H4.81482C2.58556 39.1988 0.771574 37.315 0.771574 35V5C0.771574 2.685 2.58556 0.801247 4.81482 0.801247H125.185ZM125.185 0H4.81482C2.16787 0 0 2.25125 0 5V35C0 37.7487 2.16787 40 4.81482 40H125.185C127.832 40 130 37.7487 130 35V5C130 2.25125 127.832 0 125.185 0Z" fill="#A6A6A6"/>
<path d="M24.9739 19.6067C24.951 16.9657 27.0562 15.6809 27.1525 15.6211C25.9602 13.8159 24.1122 13.5692 23.4628 13.5496C21.9107 13.38 20.4052 14.514 19.6145 14.514C18.8081 14.514 17.5906 13.566 16.2783 13.5938C14.5897 13.6209 13.01 14.6361 12.1436 16.2127C10.3556 19.4272 11.6891 24.1512 13.4022 26.7496C14.2591 28.0221 15.2605 29.443 16.5711 29.393C17.8533 29.3381 18.3323 28.5441 19.8797 28.5441C21.4128 28.5441 21.8626 29.393 23.1993 29.361C24.5754 29.3381 25.4418 28.0827 26.2687 26.7987C27.259 25.3402 27.6567 23.9037 27.6725 23.83C27.6401 23.8185 24.9999 22.7721 24.9739 19.6067Z" fill="white"/>
<path d="M22.4489 11.8403C23.1385 10.9447 23.6104 9.72618 23.4794 8.48969C22.4812 8.53557 21.2329 9.20667 20.5141 10.0826C19.8781 10.8545 19.3099 12.1197 19.4567 13.3095C20.578 13.3963 21.7292 12.722 22.4489 11.8403Z" fill="white"/>
<path d="M49.1907 9.09995C49.1907 10.277 48.8508 11.163 48.1719 11.758C47.5431 12.307 46.6495 12.582 45.492 12.582C44.918 12.582 44.4269 12.556 44.0157 12.504V6.07295C44.5521 5.98295 45.1299 5.93695 45.7539 5.93695C46.8565 5.93695 47.6875 6.18595 48.248 6.68395C48.8758 7.24695 49.1907 8.05195 49.1907 9.09995ZM48.1266 9.12895C48.1266 8.36595 47.9321 7.78095 47.5431 7.37295C47.154 6.96595 46.5859 6.76195 45.8377 6.76195C45.5199 6.76195 45.2493 6.78395 45.0249 6.82995V11.719C45.1492 11.739 45.3764 11.748 45.7067 11.748C46.479 11.748 47.0751 11.525 47.4949 11.079C47.9148 10.633 48.1266 9.98295 48.1266 9.12895Z" fill="white"/>
<path d="M54.8327 10.1279C54.8327 10.8529 54.6334 11.4469 54.2347 11.9129C53.8168 12.3919 53.2631 12.6309 52.5717 12.6309C51.9053 12.6309 51.3747 12.4019 50.9789 11.9419C50.5841 11.4829 50.3867 10.9039 50.3867 10.2059C50.3867 9.47587 50.5899 8.87687 50.9982 8.41187C51.4065 7.94687 51.9554 7.71387 52.6468 7.71387C53.3132 7.71387 53.8486 7.94287 54.254 8.40187C54.6392 8.84787 54.8327 9.42387 54.8327 10.1279ZM53.786 10.1619C53.786 9.72687 53.6955 9.35387 53.5154 9.04287C53.3035 8.66687 53.0021 8.47887 52.6102 8.47887C52.2048 8.47887 51.8966 8.66687 51.6848 9.04287C51.5038 9.35387 51.4142 9.73287 51.4142 10.1809C51.4142 10.6159 51.5047 10.9889 51.6848 11.2999C51.9034 11.6759 52.2077 11.8639 52.6006 11.8639C52.9858 11.8639 53.2881 11.6729 53.5058 11.2899C53.6926 10.9729 53.786 10.5969 53.786 10.1619Z" fill="white"/>
<path d="M62.3978 7.80988L60.9774 12.5239H60.053L59.4646 10.4769C59.3153 9.96588 59.194 9.45788 59.0996 8.95388H59.0813C58.9937 9.47188 58.8724 9.97888 58.7164 10.4769L58.0914 12.5239H57.1564L55.8207 7.80988H56.8578L57.3711 10.0509C57.4953 10.5809 57.5974 11.0859 57.6793 11.5639H57.6976C57.7727 11.1699 57.8969 10.6679 58.0721 10.0609L58.7164 7.81088H59.5387L60.156 10.0129C60.3053 10.5499 60.4266 11.0669 60.52 11.5649H60.5479C60.6163 11.0799 60.7193 10.5629 60.8561 10.0129L61.4069 7.81088H62.3978V7.80988Z" fill="white"/>
<path d="M67.6295 12.5239H66.6203V9.82388C66.6203 8.99188 66.316 8.57588 65.7055 8.57588C65.406 8.57588 65.1643 8.68988 64.9766 8.91888C64.7907 9.14788 64.6963 9.41788 64.6963 9.72688V12.5229H63.6872V9.15688C63.6872 8.74288 63.6746 8.29388 63.6506 7.80788H64.5375L64.5846 8.54488H64.6126C64.7301 8.31588 64.9053 8.12688 65.1355 7.97588C65.4089 7.79988 65.7152 7.71088 66.0503 7.71088C66.474 7.71088 66.8264 7.85288 67.1066 8.13788C67.4552 8.48688 67.6295 9.00788 67.6295 9.69988V12.5239Z" fill="white"/>
<path d="M70.4125 12.5238H69.4043V5.64685H70.4125V12.5238Z" fill="white"/>
<path d="M76.354 10.1279C76.354 10.8529 76.1546 11.4469 75.756 11.9129C75.338 12.3919 74.7834 12.6309 74.0929 12.6309C73.4256 12.6309 72.895 12.4019 72.5002 11.9419C72.1054 11.4829 71.908 10.9039 71.908 10.2059C71.908 9.47587 72.1111 8.87687 72.5194 8.41187C72.9277 7.94687 73.4766 7.71387 74.1671 7.71387C74.8344 7.71387 75.3688 7.94287 75.7752 8.40187C76.1604 8.84787 76.354 9.42387 76.354 10.1279ZM75.3063 10.1619C75.3063 9.72687 75.2157 9.35387 75.0357 9.04287C74.8248 8.66687 74.5224 8.47887 74.1314 8.47887C73.7251 8.47887 73.4169 8.66687 73.206 9.04287C73.025 9.35387 72.9354 9.73287 72.9354 10.1809C72.9354 10.6159 73.026 10.9889 73.206 11.2999C73.4246 11.6759 73.7289 11.8639 74.1218 11.8639C74.507 11.8639 74.8084 11.6729 75.026 11.2899C75.2138 10.9729 75.3063 10.5969 75.3063 10.1619Z" fill="white"/>
<path d="M81.2381 12.5239H80.332L80.2569 11.9809H80.2289C79.9189 12.4139 79.4769 12.6309 78.903 12.6309C78.4744 12.6309 78.1278 12.4879 77.8668 12.2039C77.6299 11.9459 77.5115 11.6249 77.5115 11.2439C77.5115 10.6679 77.7426 10.2289 78.2077 9.92487C78.6718 9.62087 79.3247 9.47187 80.1654 9.47887V9.39087C80.1654 8.76987 79.8515 8.45987 79.2227 8.45987C78.7749 8.45987 78.3801 8.57687 78.0392 8.80887L77.8341 8.12087C78.2558 7.84987 78.7768 7.71387 79.3912 7.71387C80.5775 7.71387 81.1727 8.36387 81.1727 9.66387V11.3999C81.1727 11.8709 81.1948 12.2459 81.2381 12.5239ZM80.1904 10.9039V10.1769C79.0772 10.1569 78.5207 10.4739 78.5207 11.1269C78.5207 11.3729 78.5842 11.5569 78.7142 11.6799C78.8442 11.8029 79.0098 11.8639 79.2073 11.8639C79.4287 11.8639 79.6358 11.7909 79.8245 11.6459C80.0142 11.4999 80.1307 11.3149 80.1741 11.0879C80.1847 11.0369 80.1904 10.9749 80.1904 10.9039Z" fill="white"/>
<path d="M86.9725 12.5239H86.077L86.0298 11.7669H86.0019C85.7159 12.3429 85.2286 12.6309 84.544 12.6309C83.997 12.6309 83.5415 12.4079 83.1804 11.9619C82.8193 11.5159 82.6392 10.9369 82.6392 10.2259C82.6392 9.46285 82.8347 8.84485 83.2276 8.37285C83.608 7.93285 84.074 7.71285 84.6287 7.71285C85.2382 7.71285 85.6648 7.92585 85.9075 8.35285H85.9268V5.64685H86.9369V11.2539C86.9369 11.7129 86.9485 12.1359 86.9725 12.5239ZM85.9268 10.5359V9.74985C85.9268 9.61385 85.9171 9.50385 85.8988 9.41985C85.842 9.16785 85.7197 8.95585 85.5339 8.78485C85.3461 8.61385 85.1198 8.52785 84.8588 8.52785C84.4823 8.52785 84.1877 8.68285 83.971 8.99385C83.7563 9.30485 83.6474 9.70185 83.6474 10.1869C83.6474 10.6529 83.7505 11.0309 83.9575 11.3219C84.1761 11.6319 84.4708 11.7869 84.8396 11.7869C85.1708 11.7869 85.4357 11.6579 85.6369 11.3989C85.8314 11.1599 85.9268 10.8719 85.9268 10.5359Z" fill="white"/>
<path d="M95.6036 10.1279C95.6036 10.8529 95.4043 11.4469 95.0056 11.9129C94.5877 12.3919 94.0349 12.6309 93.3426 12.6309C92.6772 12.6309 92.1466 12.4019 91.7498 11.9419C91.355 11.4829 91.1576 10.9039 91.1576 10.2059C91.1576 9.47587 91.3608 8.87687 91.7691 8.41187C92.1774 7.94687 92.7263 7.71387 93.4186 7.71387C94.084 7.71387 94.6204 7.94287 95.0249 8.40187C95.41 8.84787 95.6036 9.42387 95.6036 10.1279ZM94.5578 10.1619C94.5578 9.72687 94.4673 9.35387 94.2872 9.04287C94.0744 8.66687 93.774 8.47887 93.3811 8.47887C92.9766 8.47887 92.6685 8.66687 92.4557 9.04287C92.2746 9.35387 92.1851 9.73287 92.1851 10.1809C92.1851 10.6159 92.2756 10.9889 92.4557 11.2999C92.6743 11.6759 92.9786 11.8639 93.3714 11.8639C93.7566 11.8639 94.06 11.6729 94.2776 11.2899C94.4634 10.9729 94.5578 10.5969 94.5578 10.1619Z" fill="white"/>
<path d="M101.03 12.5239H100.022V9.82388C100.022 8.99188 99.7174 8.57588 99.1059 8.57588C98.8064 8.57588 98.5647 8.68988 98.3779 8.91888C98.1911 9.14788 98.0977 9.41788 98.0977 9.72688V12.5229H97.0875V9.15688C97.0875 8.74288 97.076 8.29388 97.0519 7.80788H97.9378L97.985 8.54488H98.0129C98.1314 8.31588 98.3066 8.12688 98.5358 7.97588C98.8102 7.79988 99.1155 7.71088 99.4516 7.71088C99.8743 7.71088 100.227 7.85288 100.507 8.13788C100.857 8.48688 101.03 9.00788 101.03 9.69988V12.5239Z" fill="white"/>
<path d="M107.822 8.59493H106.71V10.8849C106.71 11.4669 106.908 11.7579 107.299 11.7579C107.48 11.7579 107.63 11.7419 107.748 11.7089L107.774 12.5039C107.575 12.5819 107.313 12.6209 106.991 12.6209C106.592 12.6209 106.282 12.4949 106.058 12.2429C105.832 11.9909 105.72 11.5669 105.72 10.9719V8.59493H105.057V7.80993H105.72V6.94593L106.709 6.63593V7.80893H107.821V8.59493H107.822Z" fill="white"/>
<path d="M113.164 12.5238H112.154V9.84385C112.154 8.99885 111.85 8.57585 111.24 8.57585C110.772 8.57585 110.452 8.82085 110.277 9.31085C110.247 9.41385 110.23 9.53985 110.23 9.68785V12.5229H109.222V5.64685H110.23V8.48785H110.249C110.567 7.97085 111.023 7.71285 111.613 7.71285C112.031 7.71285 112.376 7.85485 112.651 8.13985C112.993 8.49485 113.164 9.02285 113.164 9.72085V12.5238Z" fill="white"/>
<path d="M118.675 9.94389C118.675 10.1319 118.662 10.2899 118.638 10.4189H115.611C115.625 10.8849 115.769 11.2399 116.049 11.4859C116.305 11.7059 116.636 11.8159 117.04 11.8159C117.488 11.8159 117.896 11.7419 118.264 11.5929L118.422 12.3209C117.991 12.5149 117.485 12.6119 116.899 12.6119C116.196 12.6119 115.642 12.3969 115.241 11.9669C114.839 11.5369 114.639 10.9599 114.639 10.2359C114.639 9.52489 114.825 8.93289 115.2 8.46089C115.591 7.95689 116.119 7.7049 116.787 7.7049C117.44 7.7049 117.936 7.95689 118.271 8.46089C118.541 8.86089 118.675 9.35589 118.675 9.94389ZM117.712 9.67289C117.72 9.36189 117.653 9.09389 117.517 8.8679C117.341 8.57689 117.075 8.43089 116.714 8.43089C116.384 8.43089 116.116 8.57289 115.911 8.85789C115.743 9.08489 115.644 9.35589 115.611 9.67289H117.712Z" fill="white"/>
<path d="M54.8346 30.5948H52.6477L51.4498 26.6858H47.286L46.1449 30.5948H44.0157L48.1411 17.2868H50.6891L54.8346 30.5948ZM51.0887 25.0458L50.0054 21.5708C49.8908 21.2158 49.676 20.3798 49.3592 19.0638H49.3207C49.1946 19.6298 48.9914 20.4658 48.7121 21.5708L47.648 25.0458H51.0887Z" fill="white"/>
<path d="M65.4436 25.6789C65.4436 27.3109 65.0189 28.6009 64.1696 29.5479C63.4089 30.3909 62.4642 30.8119 61.3366 30.8119C60.1194 30.8119 59.245 30.3579 58.7125 29.4499H58.674V34.5049H56.6209V24.1579C56.6209 23.1319 56.5949 22.0789 56.5449 20.9989H58.3504L58.465 22.5199H58.5035C59.1882 21.3739 60.2272 20.8019 61.6216 20.8019C62.7117 20.8019 63.6217 21.2489 64.3497 22.1439C65.0796 23.0399 65.4436 24.2179 65.4436 25.6789ZM63.352 25.7569C63.352 24.8229 63.1498 24.0529 62.7435 23.4469C62.2995 22.8149 61.7034 22.4989 60.9562 22.4989C60.4497 22.4989 59.9894 22.6749 59.5782 23.0219C59.166 23.3719 58.8964 23.8289 58.7703 24.3949C58.7067 24.6589 58.6749 24.8749 58.6749 25.0449V26.6449C58.6749 27.3429 58.881 27.9319 59.2932 28.4129C59.7053 28.8939 60.2407 29.1339 60.8994 29.1339C61.6726 29.1339 62.2745 28.8239 62.7049 28.2059C63.1363 27.5869 63.352 26.7709 63.352 25.7569Z" fill="white"/>
<path d="M76.0718 25.6789C76.0718 27.3109 75.6472 28.6009 74.7969 29.5479C74.0371 30.3909 73.0924 30.8119 71.9648 30.8119C70.7476 30.8119 69.8733 30.3579 69.3417 29.4499H69.3032V34.5049H67.2501V24.1579C67.2501 23.1319 67.2241 22.0789 67.1741 20.9989H68.9796L69.0942 22.5199H69.1327C69.8164 21.3739 70.8555 20.8019 72.2508 20.8019C73.3399 20.8019 74.2499 21.2489 74.9799 22.1439C75.7069 23.0399 76.0718 24.2179 76.0718 25.6789ZM73.9803 25.7569C73.9803 24.8229 73.7771 24.0529 73.3707 23.4469C72.9268 22.8149 72.3327 22.4989 71.5844 22.4989C71.077 22.4989 70.6176 22.6749 70.2055 23.0219C69.7933 23.3719 69.5247 23.8289 69.3985 24.3949C69.3359 24.6589 69.3032 24.8749 69.3032 25.0449V26.6449C69.3032 27.3429 69.5093 27.9319 69.9195 28.4129C70.3316 28.8929 70.867 29.1339 71.5276 29.1339C72.3009 29.1339 72.9027 28.8239 73.3332 28.2059C73.7646 27.5869 73.9803 26.7709 73.9803 25.7569Z" fill="white"/>
<path d="M87.9547 26.8629C87.9547 27.9949 87.5763 28.9159 86.8165 29.6269C85.9816 30.4039 84.8193 30.7919 83.3258 30.7919C81.9468 30.7919 80.8413 30.5159 80.0045 29.9629L80.4802 28.1859C81.3816 28.7519 82.3705 29.0359 83.4481 29.0359C84.2213 29.0359 84.8232 28.8539 85.2556 28.4919C85.686 28.1299 85.9007 27.6439 85.9007 27.0379C85.9007 26.4979 85.7236 26.0429 85.3682 25.6739C85.0148 25.3049 84.4245 24.9619 83.6002 24.6449C81.3565 23.7759 80.2356 22.5029 80.2356 20.8289C80.2356 19.7349 80.6285 18.8379 81.4153 18.1399C82.1991 17.4409 83.2449 17.0919 84.5526 17.0919C85.7187 17.0919 86.6875 17.3029 87.4607 17.7239L86.9475 19.4619C86.2253 19.0539 85.4087 18.8499 84.4948 18.8499C83.7726 18.8499 83.2083 19.0349 82.8039 19.4029C82.462 19.7319 82.2906 20.1329 82.2906 20.6079C82.2906 21.1339 82.4861 21.5689 82.879 21.9109C83.2208 22.2269 83.8419 22.5689 84.7433 22.9379C85.8459 23.3989 86.6557 23.9379 87.1767 24.5559C87.6957 25.1719 87.9547 25.9429 87.9547 26.8629Z" fill="white"/>
<path d="M94.7427 22.5989H92.4798V27.2579C92.4798 28.4429 92.8784 29.0349 93.6777 29.0349C94.0446 29.0349 94.3489 29.0019 94.5896 28.9359L94.6464 30.5549C94.242 30.7119 93.7095 30.7909 93.0498 30.7909C92.239 30.7909 91.6054 30.5339 91.148 30.0209C90.6925 29.5069 90.4633 28.6449 90.4633 27.4339V22.5969H89.1152V20.9969H90.4633V19.2399L92.4798 18.6079V20.9969H94.7427V22.5989Z" fill="white"/>
<path d="M104.953 25.7179C104.953 27.1929 104.547 28.4039 103.736 29.3509C102.886 30.3259 101.757 30.8119 100.35 30.8119C98.9942 30.8119 97.9147 30.3449 97.1097 29.4109C96.3046 28.4769 95.9021 27.2979 95.9021 25.8769C95.9021 24.3899 96.3162 23.1719 97.1472 22.2249C97.9763 21.2769 99.0953 20.8029 100.502 20.8029C101.858 20.8029 102.949 21.2699 103.772 22.2049C104.56 23.1119 104.953 24.2829 104.953 25.7179ZM102.823 25.7869C102.823 24.9019 102.641 24.1429 102.272 23.5099C101.842 22.7439 101.226 22.3619 100.429 22.3619C99.6037 22.3619 98.9768 22.7449 98.5464 23.5099C98.1776 24.1439 97.9956 24.9149 97.9956 25.8269C97.9956 26.7119 98.1776 27.4709 98.5464 28.1029C98.9903 28.8689 99.6105 29.2509 100.411 29.2509C101.195 29.2509 101.81 28.8609 102.254 28.0829C102.632 27.4379 102.823 26.6709 102.823 25.7869Z" fill="white"/>
<path d="M111.626 22.8739C111.423 22.8349 111.207 22.8149 110.979 22.8149C110.257 22.8149 109.699 23.0979 109.306 23.6649C108.964 24.1649 108.792 24.7969 108.792 25.5599V30.5949H106.74L106.76 24.0209C106.76 22.9149 106.734 21.9079 106.682 20.9999H108.471L108.546 22.8359H108.603C108.819 22.2049 109.161 21.6969 109.629 21.3159C110.087 20.9729 110.581 20.8019 111.113 20.8019C111.303 20.8019 111.474 20.8159 111.626 20.8409V22.8739Z" fill="white"/>
<path d="M120.808 25.3429C120.808 25.7249 120.784 26.0469 120.733 26.3099H114.574C114.598 27.2579 114.896 27.9829 115.468 28.4829C115.987 28.9299 116.658 29.1539 117.482 29.1539C118.394 29.1539 119.226 29.0029 119.974 28.6999L120.296 30.1799C119.421 30.5759 118.389 30.7729 117.198 30.7729C115.765 30.7729 114.64 30.3349 113.822 29.4599C113.005 28.5849 112.596 27.4099 112.596 25.9359C112.596 24.4889 112.976 23.2839 113.738 22.3229C114.535 21.2969 115.613 20.7839 116.969 20.7839C118.301 20.7839 119.309 21.2969 119.993 22.3229C120.536 23.1379 120.808 24.1459 120.808 25.3429ZM118.85 24.7899C118.864 24.1579 118.73 23.6119 118.452 23.1509C118.096 22.5579 117.55 22.2619 116.816 22.2619C116.145 22.2619 115.599 22.5509 115.182 23.1309C114.84 23.5919 114.637 24.1449 114.574 24.7889H118.85V24.7899Z" fill="white"/>
</svg>
