<svg width="130" height="40" viewBox="0 0 130 40" fill="none" xmlns="http://www.w3.org/2000/svg">
<path d="M125.185 40H4.81481C2.16787 40 0 37.7487 0 35V5C0 2.25125 2.16787 2.38419e-06 4.81481 2.38419e-06H125.185C127.832 2.38419e-06 130 2.25125 130 5V35C130 37.7487 127.832 40 125.185 40Z" fill="black"/>
<path d="M125.185 0.801251C127.414 0.801251 129.228 2.685 129.228 5V35C129.228 37.315 127.414 39.1988 125.185 39.1988H4.81481C2.58556 39.1988 0.771574 37.315 0.771574 35V5C0.771574 2.685 2.58556 0.801251 4.81481 0.801251H125.185ZM125.185 2.38419e-06H4.81481C2.16787 2.38419e-06 0 2.25125 0 5V35C0 37.7487 2.16787 40 4.81481 40H125.185C127.832 40 130 37.7487 130 35V5C130 2.25125 127.832 2.38419e-06 125.185 2.38419e-06Z" fill="#A6A6A6"/>
<path d="M10.0533 10.7925C9.84497 11.019 9.7244 11.3716 9.7244 11.8282V28.1164C9.7244 28.573 9.84497 28.9256 10.0533 29.1521L10.1047 29.2018L18.894 20.0782V19.8627L10.1047 10.7391L10.0533 10.7925Z" fill="url(#paint0_linear_265_3989)"/>
<path d="M21.8205 23.121L18.894 20.0782V19.8628L21.8241 16.82L21.8897 16.8596L25.3597 18.9099C26.3499 19.4918 26.3499 20.4492 25.3597 21.0348L21.8897 23.0814L21.8205 23.121V23.121Z" fill="url(#paint1_linear_265_3989)"/>
<path d="M21.8897 23.0813L18.894 19.9705L10.0533 29.1521C10.3822 29.5112 10.9186 29.5545 11.5285 29.1954L21.8897 23.0813" fill="url(#paint2_linear_265_3989)"/>
<path d="M21.8897 16.8596L11.5285 10.7455C10.9186 10.3902 10.3822 10.4334 10.0533 10.7925L18.894 19.9705L21.8897 16.8596Z" fill="url(#paint3_linear_265_3989)"/>
<path d="M45.7616 9.74374C45.7616 10.5787 45.5209 11.2475 45.0466 11.7462C44.5014 12.3375 43.7912 12.635 42.9209 12.635C42.0891 12.635 41.3789 12.3325 40.7964 11.7362C40.2126 11.1312 39.9213 10.3887 39.9213 9.49999C39.9213 8.61124 40.2126 7.86874 40.7964 7.26874C41.3789 6.66749 42.0891 6.36499 42.9209 6.36499C43.335 6.36499 43.7298 6.45374 44.1065 6.61874C44.4821 6.78499 44.7878 7.00999 45.0093 7.28749L44.5062 7.81499C44.1198 7.34124 43.5938 7.10749 42.9209 7.10749C42.3142 7.10749 41.7882 7.32749 41.3416 7.77124C40.8999 8.21624 40.6784 8.79249 40.6784 9.49999C40.6784 10.2075 40.8999 10.7887 41.3416 11.2337C41.7882 11.6725 42.3142 11.8975 42.9209 11.8975C43.5649 11.8975 44.1065 11.6725 44.5339 11.2287C44.8155 10.935 44.9756 10.53 45.0177 10.0125H42.9209V9.28999H45.7183C45.752 9.44624 45.7616 9.59749 45.7616 9.74374V9.74374Z" fill="white" stroke="white" stroke-width="0.16" stroke-miterlimit="10"/>
<path d="M50.1997 7.23875H47.572V9.13875H49.9409V9.86125H47.572V11.7612H50.1997V12.4975H46.8281V6.5025H50.1997V7.23875Z" fill="white" stroke="white" stroke-width="0.16" stroke-miterlimit="10"/>
<path d="M53.3317 12.4975H52.5878V7.23875H50.976V6.5025H54.9447V7.23875H53.3317V12.4975V12.4975Z" fill="white" stroke="white" stroke-width="0.16" stroke-miterlimit="10"/>
<path d="M57.8167 12.4975V6.5025H58.5594V12.4975H57.8167Z" fill="white" stroke="white" stroke-width="0.16" stroke-miterlimit="10"/>
<path d="M61.8515 12.4975H61.1137V7.23875H59.4959V6.5025H63.4693V7.23875H61.8515V12.4975Z" fill="white" stroke="white" stroke-width="0.16" stroke-miterlimit="10"/>
<path d="M70.9828 11.7262C70.4135 12.3325 69.7081 12.635 68.8667 12.635C68.0205 12.635 67.3151 12.3325 66.7458 11.7262C66.1776 11.1212 65.8948 10.3787 65.8948 9.49999C65.8948 8.62124 66.1776 7.87874 66.7458 7.27374C67.3151 6.66749 68.0205 6.36499 68.8667 6.36499C69.7033 6.36499 70.4087 6.66749 70.978 7.27874C71.551 7.88874 71.8339 8.62624 71.8339 9.49999C71.8339 10.3787 71.551 11.1212 70.9828 11.7262ZM67.2959 11.2237C67.7244 11.6725 68.2456 11.8975 68.8667 11.8975C69.483 11.8975 70.009 11.6725 70.4327 11.2237C70.8601 10.775 71.0767 10.1987 71.0767 9.49999C71.0767 8.80124 70.8601 8.22499 70.4327 7.77624C70.009 7.32749 69.483 7.10249 68.8667 7.10249C68.2456 7.10249 67.7244 7.32749 67.2959 7.77624C66.8686 8.22499 66.6519 8.80124 66.6519 9.49999C66.6519 10.1987 66.8686 10.775 67.2959 11.2237V11.2237Z" fill="white" stroke="white" stroke-width="0.16" stroke-miterlimit="10"/>
<path d="M72.8775 12.4975V6.5025H73.7802L76.5873 11.165H76.6198L76.5873 10.0125V6.5025H77.33V12.4975H76.5548L73.6153 7.605H73.5828L73.6153 8.7625V12.4975H72.8775V12.4975Z" fill="white" stroke="white" stroke-width="0.16" stroke-miterlimit="10"/>
<path d="M66.0127 21.2525C63.751 21.2525 61.9033 23.04 61.9033 25.5063C61.9033 27.9525 63.751 29.7588 66.0127 29.7588C68.2793 29.7588 70.127 27.9525 70.127 25.5063C70.127 23.04 68.2793 21.2525 66.0127 21.2525ZM66.0127 28.0838C64.7717 28.0838 63.704 27.02 63.704 25.5063C63.704 23.9725 64.7717 22.9275 66.0127 22.9275C67.2538 22.9275 68.3263 23.9725 68.3263 25.5063C68.3263 27.02 67.2538 28.0838 66.0127 28.0838V28.0838ZM57.0464 21.2525C54.7798 21.2525 52.9369 23.04 52.9369 25.5063C52.9369 27.9525 54.7798 29.7588 57.0464 29.7588C59.3117 29.7588 61.1558 27.9525 61.1558 25.5063C61.1558 23.04 59.3117 21.2525 57.0464 21.2525ZM57.0464 28.0838C55.8041 28.0838 54.7328 27.02 54.7328 25.5063C54.7328 23.9725 55.8041 22.9275 57.0464 22.9275C58.2874 22.9275 59.3551 23.9725 59.3551 25.5063C59.3551 27.02 58.2874 28.0838 57.0464 28.0838ZM46.3767 22.5563V24.3638H50.5331C50.4115 25.3738 50.0865 26.1163 49.5882 26.6338C48.9815 27.2588 48.0366 27.9525 46.3767 27.9525C43.8189 27.9525 41.8159 25.8088 41.8159 23.1525C41.8159 20.4963 43.8189 18.3525 46.3767 18.3525C47.7598 18.3525 48.7661 18.9138 49.5088 19.6413L50.7353 18.3675C49.6965 17.3375 48.3147 16.5463 46.3767 16.5463C42.8691 16.5463 39.9213 19.51 39.9213 23.1525C39.9213 26.795 42.8691 29.7588 46.3767 29.7588C48.2726 29.7588 49.6965 29.1138 50.816 27.9038C51.9631 26.7125 52.3206 25.0375 52.3206 23.685C52.3206 23.265 52.2869 22.8788 52.2267 22.5563H46.3767ZM90.0062 23.9575C89.6679 23.0063 88.6243 21.2525 86.4986 21.2525C84.3921 21.2525 82.6383 22.9763 82.6383 25.5063C82.6383 27.8888 84.374 29.7588 86.7008 29.7588C88.5822 29.7588 89.6679 28.5675 90.1145 27.8738L88.7182 26.9075C88.2524 27.615 87.618 28.0838 86.7008 28.0838C85.7896 28.0838 85.136 27.65 84.7171 26.795L90.1951 24.4413L90.0062 23.9575V23.9575ZM84.421 25.3738C84.374 23.7338 85.6476 22.8938 86.56 22.8938C87.275 22.8938 87.8816 23.265 88.0838 23.7963L84.421 25.3738V25.3738ZM79.9685 29.5H81.7692V17H79.9685V29.5ZM77.0194 22.2H76.9592C76.5548 21.7025 75.7832 21.2525 74.8058 21.2525C72.7547 21.2525 70.8793 23.1225 70.8793 25.52C70.8793 27.9038 72.7547 29.7588 74.8058 29.7588C75.7832 29.7588 76.5548 29.305 76.9592 28.7925H77.0194V29.4025C77.0194 31.0288 76.1828 31.9025 74.8335 31.9025C73.7333 31.9025 73.0508 31.0775 72.7691 30.3838L71.2031 31.0625C71.6545 32.19 72.8498 33.5775 74.8335 33.5775C76.9448 33.5775 78.7263 32.2875 78.7263 29.1488V21.5113H77.0194V22.2V22.2ZM74.9599 28.0838C73.7189 28.0838 72.68 27.005 72.68 25.52C72.68 24.0213 73.7189 22.9275 74.9599 22.9275C76.1828 22.9275 77.147 24.0213 77.147 25.52C77.147 27.005 76.1828 28.0838 74.9599 28.0838V28.0838ZM98.4369 17H94.13V29.5H95.926V24.7638H98.4369C100.431 24.7638 102.387 23.265 102.387 20.8813C102.387 18.4988 100.427 17 98.4369 17V17ZM98.4838 23.025H95.926V18.7388H98.4838C99.8248 18.7388 100.59 19.895 100.59 20.8813C100.59 21.8488 99.8248 23.025 98.4838 23.025ZM109.586 21.2288C108.288 21.2288 106.939 21.8238 106.384 23.1425L107.977 23.8363C108.321 23.1425 108.951 22.9175 109.618 22.9175C110.55 22.9175 111.495 23.4988 111.509 24.525V24.6563C111.184 24.4613 110.488 24.1725 109.633 24.1725C107.916 24.1725 106.167 25.1538 106.167 26.985C106.167 28.66 107.573 29.7388 109.153 29.7388C110.362 29.7388 111.029 29.1725 111.448 28.5138H111.509V29.48H113.244V24.685C113.244 22.4688 111.65 21.2288 109.586 21.2288ZM109.369 28.0788C108.782 28.0788 107.963 27.7763 107.963 27.02C107.963 26.0525 108.984 25.6813 109.867 25.6813C110.658 25.6813 111.029 25.8625 111.509 26.1013C111.368 27.2588 110.409 28.0788 109.369 28.0788V28.0788ZM119.563 21.5025L117.499 26.9213H117.437L115.303 21.5025H113.366L116.573 29.075L114.743 33.2888H116.62L121.561 21.5025H119.563V21.5025ZM103.374 29.5H105.175V17H103.374V29.5Z" fill="white"/>
<defs>
<linearGradient id="paint0_linear_265_3989" x1="18.1136" y1="28.286" x2="5.76183" y2="16.3917" gradientUnits="userSpaceOnUse">
<stop stop-color="#00A0FF"/>
<stop offset="0.0066" stop-color="#00A1FF"/>
<stop offset="0.2601" stop-color="#00BEFF"/>
<stop offset="0.5122" stop-color="#00D2FF"/>
<stop offset="0.7604" stop-color="#00DFFF"/>
<stop offset="1" stop-color="#00E3FF"/>
</linearGradient>
<linearGradient id="paint1_linear_265_3989" x1="26.6492" y1="19.9695" x2="9.48767" y2="19.9695" gradientUnits="userSpaceOnUse">
<stop stop-color="#FFE000"/>
<stop offset="0.4087" stop-color="#FFBD00"/>
<stop offset="0.7754" stop-color="#FFA500"/>
<stop offset="1" stop-color="#FF9C00"/>
</linearGradient>
<linearGradient id="paint2_linear_265_3989" x1="20.2607" y1="18.2793" x2="3.51066" y2="2.14965" gradientUnits="userSpaceOnUse">
<stop stop-color="#FF3A44"/>
<stop offset="1" stop-color="#C31162"/>
</linearGradient>
<linearGradient id="paint3_linear_265_3989" x1="7.82789" y1="34.5711" x2="15.3075" y2="27.3686" gradientUnits="userSpaceOnUse">
<stop stop-color="#32A071"/>
<stop offset="0.0685" stop-color="#2DA771"/>
<stop offset="0.4762" stop-color="#15CF74"/>
<stop offset="0.8009" stop-color="#06E775"/>
<stop offset="1" stop-color="#00F076"/>
</linearGradient>
</defs>
</svg>
